<svg width="261" height="261" viewBox="0 0 261 261" fill="none" xmlns="http://www.w3.org/2000/svg">
<g id="bootstrap">
<g id="BASE" filter="url(#filter0_d_22_680)">
<rect x="40.724" y="36.2969" width="180" height="180" rx="32" fill="white"/>
<rect x="41.224" y="36.7969" width="179" height="179" rx="31.5" stroke="white"/>
</g>
<g id="Group 60">
<path id="Vector" d="M84.8233 81.3076H176.49V170.475H84.8233V81.3076Z" fill="url(#paint0_radial_22_680)"/>
<path id="Vector_2" d="M84.8233 81.3076H176.49V170.474H84.8233V81.3076ZM80.6567 174.641H180.657V77.141H80.6567V174.641ZM139.199 118.183C139.199 117.683 139.199 116.474 138.99 114.141C138.99 113.808 139.074 113.724 139.324 113.599C141.865 112.558 147.907 110.724 154.657 110.724C154.99 110.724 155.157 110.808 155.157 111.141V117.141C155.157 117.474 155.032 117.558 154.657 117.558C152.032 117.433 148.157 117.766 146.699 118.391V144.683C146.699 145.016 146.574 145.183 146.198 145.183H139.657C139.324 145.183 139.157 145.058 139.157 144.683V118.183H139.199V118.183ZM108.365 145.183C107.865 145.183 107.74 144.975 107.74 144.558V99.766C107.74 99.4327 107.865 99.2242 108.24 99.2242H114.823C115.157 99.2242 115.24 99.3492 115.24 99.7243V138.308H132.407C132.74 138.308 132.865 138.433 132.782 138.808L131.74 144.725C131.657 145.058 131.448 145.224 131.115 145.224H108.365V145.183Z" fill="#AAD1EB"/>
</g>
</g>
<defs>
<filter id="filter0_d_22_680" x="0.723999" y="0.296875" width="260" height="260" filterUnits="userSpaceOnUse" color-interpolation-filters="sRGB">
<feFlood flood-opacity="0" result="BackgroundImageFix"/>
<feColorMatrix in="SourceAlpha" type="matrix" values="0 0 0 0 0 0 0 0 0 0 0 0 0 0 0 0 0 0 127 0" result="hardAlpha"/>
<feOffset dy="4"/>
<feGaussianBlur stdDeviation="20"/>
<feComposite in2="hardAlpha" operator="out"/>
<feColorMatrix type="matrix" values="0 0 0 0 0.0367917 0 0 0 0 0.0348958 0 0 0 0 0.0484375 0 0 0 0.1 0"/>
<feBlend mode="normal" in2="BackgroundImageFix" result="effect1_dropShadow_22_680"/>
<feBlend mode="normal" in="SourceGraphic" in2="effect1_dropShadow_22_680" result="shape"/>
</filter>
<radialGradient id="paint0_radial_22_680" cx="0" cy="0" r="1" gradientUnits="userSpaceOnUse" gradientTransform="translate(115.014 101.29) scale(69.6668 67.4502)">
<stop stop-color="#39464D" stop-opacity="0.98"/>
<stop offset="1" stop-color="#05151F"/>
</radialGradient>
</defs>
</svg>
