<svg width="261" height="261" viewBox="0 0 261 261" fill="none" xmlns="http://www.w3.org/2000/svg">
<g id="kubernetes">
<g id="BASE" filter="url(#filter0_d_305_32)">
<rect x="40.724" y="36.6238" width="180" height="180" rx="32" fill="white"/>
<rect x="41.224" y="37.1238" width="179" height="179" rx="31.5" stroke="white"/>
</g>
<g id="Layer_1-2">
<path id="Vector" d="M172.252 99.3846C171.68 97.5549 170.308 96.0683 168.593 95.1534L133.714 78.4577C132.8 78.0003 131.77 77.8859 130.856 77.8859C129.941 77.8859 128.912 77.8859 127.997 78.1146L93.1186 94.9247C91.4033 95.7252 90.1454 97.2118 89.688 99.1558L81.1114 136.778C80.7684 138.722 81.2258 140.666 82.3693 142.267L106.498 172.114C107.87 173.486 109.814 174.401 111.758 174.515H150.181C152.24 174.744 154.184 173.829 155.442 172.114L179.571 142.267C180.714 140.666 181.172 138.722 180.943 136.778L172.252 99.3846Z" fill="white" stroke="white" stroke-width="5" stroke-miterlimit="10"/>
<path id="Vector_2" d="M172.252 99.3846C171.68 97.5549 170.308 96.0683 168.593 95.1534L133.714 78.4577C132.8 78.0003 131.77 77.8859 130.856 77.8859C129.941 77.8859 128.912 77.8859 127.997 78.1146L93.1186 94.9247C91.4033 95.7252 90.1454 97.2118 89.688 99.1558L81.1114 136.778C80.7684 138.722 81.2258 140.666 82.3693 142.267L106.498 172.114C107.87 173.486 109.814 174.401 111.758 174.515H150.181C152.24 174.744 154.184 173.829 155.442 172.114L179.571 142.267C180.714 140.666 181.172 138.722 180.943 136.778L172.252 99.3846Z" fill="#326DE6"/>
<path id="Vector_3" d="M166.877 135.292C166.763 135.292 166.649 135.292 166.649 135.178C166.649 135.063 166.42 135.063 166.191 135.063C165.734 134.949 165.276 134.949 164.819 134.949C164.59 134.949 164.361 134.949 164.133 134.834H164.018C162.76 134.72 161.388 134.491 160.13 134.148C159.787 134.034 159.444 133.691 159.33 133.348L158.415 133.119C158.872 129.803 158.644 126.372 157.958 123.056C157.157 119.74 155.785 116.538 153.955 113.679L154.641 112.993V112.878C154.641 112.535 154.756 112.078 154.984 111.849C156.014 110.934 157.043 110.248 158.186 109.562C158.415 109.448 158.644 109.333 158.872 109.219C159.33 108.99 159.673 108.762 160.13 108.533C160.245 108.419 160.359 108.419 160.473 108.304C160.588 108.19 160.473 108.19 160.473 108.076C161.503 107.275 161.731 105.903 160.931 104.874C160.588 104.416 159.902 104.073 159.33 104.073C158.758 104.073 158.186 104.302 157.729 104.645L157.615 104.759C157.5 104.874 157.386 104.988 157.271 104.988C156.928 105.331 156.585 105.674 156.357 106.017C156.242 106.246 156.014 106.36 155.899 106.475C155.099 107.389 154.07 108.304 153.04 108.99C152.812 109.105 152.583 109.219 152.354 109.219C152.24 109.219 152.011 109.219 151.897 109.105H151.782L150.868 109.676C149.953 108.762 148.924 107.847 148.009 106.932C143.778 103.616 138.517 101.557 133.143 100.986L133.028 100.071V100.185C132.685 99.9564 132.571 99.6133 132.457 99.2702C132.457 98.0123 132.457 96.7544 132.685 95.3822V95.2678C132.685 95.0391 132.8 94.8104 132.8 94.5817C132.914 94.1243 132.914 93.6669 133.028 93.2095V92.5233C133.143 91.3798 132.228 90.2362 131.084 90.1219C130.398 90.0075 129.712 90.3506 129.14 90.9224C128.683 91.3798 128.454 91.9516 128.454 92.5233V93.0951C128.454 93.5525 128.568 94.0099 128.683 94.4674C128.797 94.6961 128.797 94.9248 128.797 95.1535V95.2678C129.026 96.5257 129.026 97.7836 129.026 99.1559C128.912 99.4989 128.797 99.842 128.454 100.071V100.299L128.34 101.214C127.082 101.329 125.824 101.557 124.452 101.786C119.077 102.93 114.16 105.788 110.386 109.791L109.7 109.333H109.586C109.471 109.333 109.357 109.448 109.128 109.448C108.9 109.448 108.671 109.333 108.442 109.219C107.413 108.419 106.384 107.504 105.583 106.589C105.469 106.36 105.24 106.246 105.126 106.132C104.783 105.788 104.554 105.445 104.211 105.102C104.097 104.988 103.982 104.988 103.868 104.874C103.754 104.759 103.754 104.759 103.754 104.759C103.296 104.416 102.724 104.187 102.153 104.187C101.466 104.187 100.895 104.416 100.552 104.988C99.8655 106.017 100.094 107.389 101.009 108.19C101.123 108.19 101.123 108.304 101.123 108.304C101.123 108.304 101.352 108.533 101.466 108.533C101.81 108.762 102.267 108.99 102.724 109.219C102.953 109.333 103.182 109.448 103.411 109.562C104.554 110.248 105.698 110.934 106.612 111.849C106.841 112.078 107.07 112.535 106.956 112.878V112.764L107.642 113.45C107.527 113.679 107.413 113.793 107.299 114.022C103.754 119.625 102.267 126.258 103.296 132.776L102.381 133.005C102.381 133.119 102.267 133.119 102.267 133.119C102.153 133.462 101.81 133.691 101.466 133.92C100.209 134.263 98.9507 134.491 97.5784 134.606C97.3497 134.606 97.121 134.606 96.8923 134.72C96.4349 134.72 95.9775 134.834 95.5201 134.834C95.4057 134.834 95.2914 134.949 95.0627 134.949C94.9483 134.949 94.9483 134.949 94.8339 135.063C93.576 135.292 92.7756 136.435 93.0043 137.693C93.233 138.723 94.2622 139.409 95.2914 139.294C95.5201 139.294 95.6344 139.294 95.8631 139.18C95.9775 139.18 95.9775 139.18 95.9775 139.066C95.9775 138.951 96.3206 139.066 96.4349 139.066C96.8923 138.951 97.3497 138.723 97.6928 138.608C97.9215 138.494 98.1502 138.379 98.3789 138.379H98.4933C99.7512 137.922 100.895 137.579 102.267 137.35H102.381C102.724 137.35 103.067 137.465 103.296 137.693C103.411 137.693 103.411 137.808 103.411 137.808L104.44 137.693C106.155 142.954 109.357 147.642 113.817 151.073C114.846 151.873 115.761 152.559 116.904 153.131L116.333 153.932C116.333 154.046 116.447 154.046 116.447 154.046C116.676 154.389 116.676 154.846 116.561 155.19C116.104 156.333 115.418 157.477 114.732 158.506V158.62C114.617 158.849 114.503 158.963 114.274 159.192C114.045 159.421 113.817 159.878 113.474 160.335C113.359 160.45 113.359 160.564 113.245 160.679C113.245 160.679 113.245 160.793 113.131 160.793C112.559 161.936 113.016 163.309 114.045 163.88C114.274 163.995 114.617 164.109 114.846 164.109C115.761 164.109 116.561 163.537 117.019 162.737C117.019 162.737 117.019 162.623 117.133 162.623C117.133 162.508 117.247 162.394 117.362 162.28C117.476 161.822 117.705 161.479 117.819 161.022L118.048 160.335C118.391 159.078 118.963 157.934 119.534 156.791C119.763 156.447 120.106 156.219 120.449 156.104C120.564 156.104 120.564 156.104 120.564 155.99L121.021 155.075C124.223 156.333 127.539 156.905 130.97 156.905C133.028 156.905 135.087 156.676 137.145 156.104C138.403 155.876 139.661 155.418 140.804 155.075L141.262 155.876C141.376 155.876 141.376 155.876 141.376 155.99C141.719 156.104 142.062 156.333 142.291 156.676C142.863 157.82 143.435 158.963 143.778 160.221V160.335L144.006 161.022C144.121 161.479 144.235 161.936 144.464 162.28C144.578 162.394 144.578 162.508 144.692 162.623C144.692 162.623 144.692 162.737 144.807 162.737C145.264 163.537 146.065 164.109 146.98 164.109C147.323 164.109 147.551 163.995 147.894 163.88C148.352 163.652 148.809 163.194 148.924 162.623C149.038 162.051 149.038 161.479 148.809 160.907C148.809 160.793 148.695 160.793 148.695 160.793C148.695 160.679 148.581 160.564 148.466 160.45C148.237 159.992 148.009 159.649 147.666 159.306C147.551 159.078 147.437 158.963 147.208 158.735V158.506C146.408 157.477 145.836 156.333 145.379 155.19C145.264 154.846 145.264 154.389 145.493 154.046C145.493 153.932 145.607 153.932 145.607 153.932L145.264 153.017C151.096 149.472 155.556 143.983 157.615 137.465L158.529 137.579C158.644 137.579 158.644 137.465 158.644 137.465C158.872 137.236 159.215 137.122 159.559 137.122H159.673C160.931 137.35 162.189 137.693 163.332 138.151H163.447C163.675 138.265 163.904 138.379 164.133 138.379C164.59 138.608 164.933 138.837 165.391 138.951C165.505 138.951 165.619 139.066 165.848 139.066C165.962 139.066 165.962 139.066 166.077 139.18C166.305 139.294 166.42 139.294 166.649 139.294C167.678 139.294 168.593 138.608 168.936 137.693C168.821 136.435 167.906 135.521 166.877 135.292ZM133.829 131.747L130.741 133.234L127.654 131.747L126.853 128.431L129.026 125.686H132.457L134.629 128.431L133.829 131.747ZM152.469 124.314C153.04 126.715 153.155 129.117 152.926 131.518L142.062 128.431C141.033 128.202 140.461 127.173 140.69 126.144C140.804 125.8 140.919 125.572 141.147 125.343L149.724 117.567C150.982 119.625 151.897 121.912 152.469 124.314ZM146.293 113.336L136.916 119.968C136.116 120.426 134.972 120.311 134.401 119.511C134.172 119.282 134.058 119.054 134.058 118.71L133.371 107.161C138.403 107.732 142.863 109.905 146.293 113.336ZM125.595 107.504L127.882 107.046L127.311 118.482C127.311 119.511 126.396 120.311 125.367 120.311C125.024 120.311 124.795 120.197 124.452 120.083L114.96 113.336C117.934 110.477 121.593 108.419 125.595 107.504ZM111.644 117.567L120.106 125.114C120.907 125.8 121.021 126.944 120.335 127.744C120.106 128.088 119.878 128.202 119.42 128.316L108.328 131.518C107.985 126.715 109.128 121.798 111.644 117.567ZM109.7 136.893L121.021 134.949C121.936 134.949 122.851 135.521 122.965 136.435C123.079 136.778 123.079 137.236 122.851 137.579L118.505 148.1C114.503 145.469 111.301 141.467 109.7 136.893ZM135.658 151.073C134.058 151.416 132.457 151.645 130.741 151.645C128.34 151.645 125.824 151.187 123.537 150.501L129.14 140.323C129.712 139.637 130.627 139.409 131.427 139.866C131.77 140.095 131.999 140.323 132.342 140.667L137.831 150.615C137.145 150.73 136.459 150.844 135.658 151.073ZM149.61 141.124C147.894 143.868 145.493 146.27 142.748 147.985L138.289 137.236C138.06 136.321 138.517 135.406 139.318 135.063C139.661 134.949 140.004 134.834 140.347 134.834L151.782 136.778C151.211 138.379 150.525 139.866 149.61 141.124Z" fill="white"/>
</g>
</g>
<defs>
<filter id="filter0_d_305_32" x="0.723999" y="0.623779" width="260" height="260" filterUnits="userSpaceOnUse" color-interpolation-filters="sRGB">
<feFlood flood-opacity="0" result="BackgroundImageFix"/>
<feColorMatrix in="SourceAlpha" type="matrix" values="0 0 0 0 0 0 0 0 0 0 0 0 0 0 0 0 0 0 127 0" result="hardAlpha"/>
<feOffset dy="4"/>
<feGaussianBlur stdDeviation="20"/>
<feComposite in2="hardAlpha" operator="out"/>
<feColorMatrix type="matrix" values="0 0 0 0 0.0367917 0 0 0 0 0.0348958 0 0 0 0 0.0484375 0 0 0 0.1 0"/>
<feBlend mode="normal" in2="BackgroundImageFix" result="effect1_dropShadow_305_32"/>
<feBlend mode="normal" in="SourceGraphic" in2="effect1_dropShadow_305_32" result="shape"/>
</filter>
</defs>
</svg>
